<svg width="561" height="144" viewBox="0 0 561 144" fill="none" xmlns="http://www.w3.org/2000/svg">
<path d="M560.84 30.9434L555.651 113.755L529.927 114.883L530.153 71.221L518.532 106.422H508.603L499.69 74.9442L499.578 111.499L473.516 112.288L474.644 34.328L503.639 33.1998L515.147 70.5441L530.491 30.9434H560.84Z" fill="#FF4232"/>
<path d="M324.366 93.1086C324.366 96.23 323.783 98.919 322.618 101.175C321.489 103.432 319.966 105.35 318.048 106.929C316.13 108.509 313.911 109.806 311.392 110.822C308.91 111.8 306.315 112.571 303.607 113.135C300.899 113.699 298.173 114.075 295.427 114.263C292.72 114.451 290.181 114.545 287.812 114.545C285.48 114.545 283.054 114.451 280.535 114.263C278.053 114.112 275.571 113.83 273.088 113.417C270.606 113.003 268.162 112.458 265.755 111.781C263.348 111.066 261.073 110.182 258.929 109.129L258.816 36.4717C260.922 35.6067 263.16 34.8357 265.529 34.1588C267.899 33.4443 270.306 32.8613 272.75 32.4101C275.232 31.9212 277.695 31.5639 280.14 31.3382C282.584 31.075 284.954 30.9434 287.248 30.9434C289.918 30.9434 292.607 31.1126 295.315 31.4511C298.06 31.7895 300.692 32.3536 303.212 33.1434C305.732 33.9332 308.082 34.9674 310.264 36.246C312.445 37.4871 314.344 39.029 315.961 40.8717C317.616 42.7145 318.894 44.8581 319.797 47.3026C320.737 49.7471 321.207 52.5677 321.207 55.7643C321.207 57.8704 320.906 59.8448 320.305 61.6875C319.703 63.5303 318.838 65.185 317.71 66.6517C316.582 68.1184 315.209 69.3783 313.592 70.4313C311.975 71.4467 310.151 72.1988 308.12 72.6877C310.564 73.3271 312.783 74.2672 314.776 75.5083C316.807 76.7493 318.518 78.2536 319.91 80.0212C321.339 81.7888 322.43 83.782 323.182 86.0008C323.971 88.2196 324.366 90.5889 324.366 93.1086ZM295.709 60.9542C295.709 59.8636 295.484 58.9422 295.032 58.19C294.581 57.4003 294.017 56.7609 293.34 56.272C292.701 55.7831 291.986 55.4259 291.197 55.2002C290.444 54.9746 289.767 54.8618 289.166 54.8618C288.414 54.8618 287.68 54.9746 286.966 55.2002C286.251 55.4259 285.555 55.6891 284.878 55.99L284.54 68.5133C285.405 68.5133 286.477 68.4381 287.755 68.2876C289.034 68.1372 290.256 67.8176 291.422 67.3287C292.626 66.8021 293.641 66.05 294.468 65.0722C295.296 64.0568 295.709 62.6841 295.709 60.9542ZM287.699 79.3443C286.608 79.3443 285.555 79.4571 284.54 79.6827L284.314 92.5445C284.878 92.6573 285.424 92.7702 285.95 92.883C286.514 92.9582 287.06 92.9958 287.586 92.9958C288.376 92.9958 289.241 92.9206 290.181 92.7702C291.121 92.5821 292.005 92.2437 292.832 91.7548C293.66 91.2282 294.337 90.5325 294.863 89.6675C295.427 88.8026 295.709 87.6555 295.709 86.2264C295.709 84.7974 295.427 83.6315 294.863 82.7289C294.337 81.8264 293.679 81.1306 292.889 80.6417C292.099 80.1152 291.234 79.7768 290.294 79.6263C289.354 79.4383 288.489 79.3443 287.699 79.3443Z" fill="#FF4232"/>
<path d="M258.589 34.1024L236.588 72.3493L255.317 105.632L231.737 112.965L221.583 89.9496L209.624 113.078L185.254 104.278L206.013 71.5595L187.059 37.1486L212.895 30.9434L222.147 53.6207L231.962 30.9434L258.589 34.1024Z" fill="white"/>
<path d="M190.556 73.365C190.556 76.7872 190.162 80.0967 189.372 83.2934C188.582 86.4524 187.435 89.4234 185.931 92.2063C184.464 94.9893 182.659 97.5466 180.515 99.8783C178.409 102.172 176.021 104.147 173.351 105.801C170.718 107.456 167.841 108.754 164.72 109.694C161.599 110.596 158.289 111.048 154.792 111.048C151.407 111.048 148.173 110.615 145.089 109.75C142.043 108.885 139.185 107.682 136.514 106.14C133.844 104.56 131.419 102.68 129.237 100.499C127.094 98.28 125.251 95.8355 123.709 93.1653C122.205 90.4576 121.02 87.5618 120.155 84.478C119.328 81.3942 118.914 78.1787 118.914 74.8316C118.914 71.5598 119.309 68.3632 120.099 65.2417C120.888 62.0827 122.017 59.1117 123.483 56.3287C124.988 53.5458 126.793 50.9885 128.899 48.6568C131.005 46.3251 133.355 44.3131 135.95 42.6208C138.583 40.9285 141.422 39.6122 144.468 38.672C147.515 37.7318 150.73 37.2617 154.115 37.2617C159.568 37.2617 164.532 38.1079 169.007 39.8002C173.52 41.4926 177.356 43.9183 180.515 47.0773C183.712 50.1987 186.175 53.9971 187.905 58.4724C189.673 62.9101 190.556 67.8743 190.556 73.365ZM165.51 74.8316C165.51 73.2145 165.265 71.6538 164.776 70.1495C164.325 68.6076 163.648 67.2537 162.746 66.0879C161.843 64.8845 160.715 63.9255 159.361 63.2109C158.045 62.4588 156.522 62.0827 154.792 62.0827C153.024 62.0827 151.445 62.4024 150.053 63.0417C148.662 63.681 147.458 64.5648 146.443 65.693C145.465 66.7836 144.713 68.0811 144.186 69.5854C143.66 71.0521 143.397 72.6128 143.397 74.2675C143.397 75.8471 143.622 77.4266 144.074 79.0061C144.525 80.5856 145.202 82.0147 146.104 83.2934C147.007 84.572 148.116 85.6062 149.433 86.396C150.786 87.1857 152.347 87.5806 154.115 87.5806C155.882 87.5806 157.462 87.2421 158.853 86.5652C160.282 85.8507 161.486 84.9105 162.464 83.7446C163.441 82.5412 164.194 81.1685 164.72 79.6266C165.247 78.0847 165.51 76.4864 165.51 74.8316Z" fill="white"/>
<path d="M118.18 81.0369L115.811 106.084L68.3125 109.807C68.5381 96.6817 68.7826 83.6319 69.0459 70.6573C69.3467 57.6827 69.704 44.6328 70.1177 31.5078H99.4515C98.5866 39.7439 97.7592 47.9799 96.9695 56.216C96.1797 64.4144 95.6156 72.6881 95.2771 81.0369C97.0447 81.1122 98.7934 81.1498 100.523 81.1498C102.253 81.1498 104.002 81.1498 105.77 81.1498C107.876 81.1498 109.944 81.131 111.975 81.0934C114.006 81.0557 116.074 81.0369 118.18 81.0369Z" fill="white"/>
<path d="M65.5499 93.1086C65.5499 96.23 64.967 98.919 63.8012 101.175C62.673 103.432 61.1499 105.35 59.2319 106.929C57.3139 108.509 55.095 109.806 52.5753 110.822C50.0932 111.8 47.4983 112.571 44.7906 113.135C42.0828 113.699 39.3563 114.075 36.6109 114.263C33.9032 114.451 31.3647 114.545 28.9954 114.545C26.6637 114.545 24.2381 114.451 21.7184 114.263C19.2363 114.112 16.7542 113.83 14.2721 113.417C11.79 113.003 9.34547 112.458 6.93859 111.781C4.53171 111.066 2.25645 110.182 0.112823 109.129L0 36.4717C2.10602 35.6067 4.34367 34.8357 6.71295 34.1588C9.08222 33.4443 11.4891 32.8613 13.9336 32.4101C16.4157 31.9212 18.879 31.5639 21.3235 31.3382C23.768 31.075 26.1372 30.9434 28.4313 30.9434C31.1014 30.9434 33.7904 31.1126 36.4981 31.4511C39.2435 31.7895 41.876 32.3536 44.3957 33.1434C46.9154 33.9332 49.2659 34.9674 51.4471 36.246C53.6284 37.4871 55.5275 39.029 57.1447 40.8717C58.7994 42.7145 60.078 44.8581 60.9806 47.3026C61.9208 49.7471 62.3909 52.5677 62.3909 55.7643C62.3909 57.8704 62.09 59.8448 61.4883 61.6875C60.8866 63.5303 60.0216 65.185 58.8934 66.6517C57.7652 68.1184 56.3925 69.3783 54.7754 70.4313C53.1583 71.4467 51.3343 72.1988 49.3035 72.6877C51.748 73.3271 53.9668 74.2672 55.96 75.5083C57.9908 76.7493 59.702 78.2536 61.0935 80.0212C62.5225 81.7888 63.6132 83.782 64.3653 86.0008C65.1551 88.2196 65.5499 90.5889 65.5499 93.1086ZM36.893 60.9542C36.893 59.8636 36.6674 58.9422 36.2161 58.19C35.7648 57.4003 35.2007 56.7609 34.5237 56.272C33.8844 55.7831 33.1699 55.4259 32.3801 55.2002C31.6279 54.9746 30.951 54.8618 30.3493 54.8618C29.5971 54.8618 28.8638 54.9746 28.1492 55.2002C27.4347 55.4259 26.739 55.6891 26.062 55.99L25.7236 68.5133C26.5885 68.5133 27.6603 68.4381 28.939 68.2876C30.2177 68.1372 31.4399 67.8176 32.6057 67.3287C33.8092 66.8021 34.8246 66.05 35.6519 65.0722C36.4793 64.0568 36.893 62.6841 36.893 60.9542ZM28.8826 79.3443C27.792 79.3443 26.739 79.4571 25.7236 79.6827L25.4979 92.5445C26.062 92.6573 26.6073 92.7702 27.1338 92.883C27.698 92.9582 28.2433 92.9958 28.7698 92.9958C29.5595 92.9958 30.4245 92.9206 31.3647 92.7702C32.3049 92.5821 33.1887 92.2437 34.016 91.7548C34.8434 91.2282 35.5203 90.5325 36.0468 89.6675C36.6109 88.8026 36.893 87.6555 36.893 86.2264C36.893 84.7974 36.6109 83.6315 36.0468 82.7289C35.5203 81.8264 34.8622 81.1306 34.0724 80.6417C33.2827 80.1152 32.4177 79.7768 31.4775 79.6263C30.5373 79.4383 29.6723 79.3443 28.8826 79.3443Z" fill="white"/>
<path fill-rule="evenodd" clip-rule="evenodd" d="M414.997 107.137C414.199 106.666 413.422 106.17 412.667 105.647C412.549 104.31 413.813 103.154 415.201 103.545L425.277 106.39C427.015 106.881 428.462 104.998 427.54 103.445L419.752 90.3162C418.961 88.983 419.922 87.2958 421.472 87.2958H435.774C437.699 87.2958 438.513 84.8445 436.971 83.6932L427.332 76.4955C426.26 75.6956 426.26 74.0903 427.332 73.2904L436.971 66.0926C438.513 64.9413 437.699 62.49 435.774 62.49H421.472C419.922 62.49 418.961 60.8028 419.752 59.4696L426.197 48.6063C427.247 46.836 425.26 44.8249 423.477 45.8535L412.725 52.0559C411.392 52.8251 409.726 51.8628 409.726 50.3235V45.3279C411.192 43.9963 412.755 42.7909 414.414 41.7116C415.701 40.8867 416.204 38.1838 416.71 35.4627C417.274 32.4342 417.842 29.3831 419.499 28.873C421.165 28.3603 423.922 30.4426 426.665 32.5155C429.103 34.3573 431.531 36.1918 433.176 36.1918C436.021 36.1918 437.815 32.2227 439.49 28.5181C441.132 24.8872 442.658 21.5102 444.946 22.373C447.783 23.434 451.7 30.862 455.066 37.2473L455.066 37.2474C457.231 41.3535 459.169 45.0284 460.446 46.3019C462.149 47.96 464.378 44.4398 466.384 41.2739C468.267 38.3012 469.952 35.6408 470.817 37.873C472.169 41.257 471.519 55.9912 471.091 65.7096C470.94 69.1182 470.817 71.9098 470.817 73.3783C470.817 76.9033 470.409 80.312 469.594 83.6046C468.778 86.8584 467.593 89.9186 466.039 92.785C465.351 94.0882 465.427 97.9654 465.508 102.032C465.605 106.911 465.707 112.063 464.499 113.373C463.405 114.561 461.213 112.459 458.953 110.291C456.718 108.148 454.417 105.941 453.046 106.788C450.326 108.492 447.355 109.829 444.131 110.797C440.907 111.727 437.488 112.192 433.876 112.192C430.379 112.192 427.039 111.746 423.854 110.855C420.707 109.964 417.755 108.725 414.997 107.137ZM401.742 37.9482C401.473 33.5781 400.683 30.7152 398.999 31.0003C398.394 30.395 397.259 33.2933 395.904 36.755L395.904 36.7551C395.191 38.576 394.417 40.5529 393.627 42.2576C395.824 42.3669 397.973 41.5662 399.564 40.0393L401.742 37.9482ZM382.046 106.788C382.462 106.531 382.871 106.267 383.274 105.994L383.522 105.082C383.941 103.546 382.484 102.16 380.971 102.655L370.514 106.076C368.752 106.653 367.222 104.729 368.18 103.142L375.913 90.3292C376.718 88.9963 375.758 87.2958 374.201 87.2958H359.6C357.667 87.2958 356.859 84.8269 358.417 83.6834L368.197 76.5052C369.285 75.706 369.285 74.0797 368.197 73.2806L358.417 66.1023C356.859 64.9589 357.667 62.49 359.6 62.49H374.201C375.758 62.49 376.718 60.7895 375.913 59.4565L369.348 48.5788C368.284 46.8163 370.256 44.7901 372.047 45.8055L383.134 52.0927C384.468 52.8487 386.121 51.8857 386.121 50.3529V43.4271C383.592 41.5355 380.738 39.9953 377.559 38.8064C375.355 37.9752 375.527 32.7221 375.699 27.4532V27.4532C375.888 21.6726 376.077 15.873 373.131 15.873C371.209 15.873 366.032 22.156 361.236 27.9769C357.305 32.7478 353.63 37.2082 352.213 37.6444C349.066 38.6128 346.133 39.9685 343.414 41.7116C342.113 42.5576 338.015 40.4063 333.892 38.2421C329.519 35.9468 325.119 33.6369 323.999 34.873C322.875 36.1138 325.072 40.9011 327.245 45.6346C329.277 50.0635 331.288 54.4453 330.537 55.8309C329.022 58.6974 327.857 61.7575 327.041 65.0113C326.225 68.2264 325.817 71.519 325.817 74.889C325.817 78.3365 326.245 81.6484 327.099 84.8248C327.993 88.0012 329.216 90.9838 330.77 93.7728C332.363 96.5231 334.266 99.0409 336.48 101.326C337.591 102.434 336.091 105.466 334.615 108.452C333.095 111.525 331.6 114.548 332.999 115.373C334.465 116.217 339.093 114.636 343.58 113.103C347.534 111.752 351.379 110.438 352.854 110.855C356.039 111.746 359.379 112.192 362.876 112.192C366.488 112.192 369.907 111.727 373.131 110.797C376.355 109.829 379.326 108.492 382.046 106.788Z" fill="#FF4232"/>
<path fill-rule="evenodd" clip-rule="evenodd" d="M409.119 57.4165C409.106 56.964 408.96 56.5196 408.832 56.2562L409.432 55.9639C409.592 56.2934 409.77 56.8306 409.786 57.3968C409.803 57.9655 409.657 58.6104 409.11 59.0693C408.951 59.2023 408.805 59.3211 408.67 59.4308L408.67 59.4308C408.313 59.7214 408.034 59.9482 407.81 60.2064C407.526 60.5342 407.196 61.0925 407.142 61.7004C406.876 61.6605 406.744 61.5803 406.543 61.3321C406.608 60.5883 406.927 60.2065 407.306 59.7693C407.571 59.4635 407.915 59.1839 408.291 58.8785L408.291 58.8785L408.291 58.8785L408.291 58.8784L408.291 58.8784C408.418 58.7752 408.548 58.6691 408.681 58.558C409.016 58.2768 409.132 57.8662 409.119 57.4165ZM406.704 60.0931C405.13 59.1249 403.705 58.7327 403.364 59.2206C402.976 59.7742 404.131 61.2514 405.942 62.5201C407.754 63.7888 409.537 64.3684 409.925 63.8148C410.282 63.3054 409.333 62.0141 407.767 60.8228C407.684 61.0041 407.627 61.2193 407.6 61.4977C407.972 61.8696 408.156 62.2247 408.033 62.3999C407.858 62.6491 407.129 62.4396 406.404 61.932C405.679 61.4244 405.233 60.8109 405.408 60.5617C405.535 60.3801 405.957 60.4421 406.457 60.6856C406.52 60.4702 406.603 60.2746 406.704 60.0931ZM405.699 62.8696C407.027 63.7996 408.38 64.3869 409.413 64.5475L389.709 92.6868L389.709 92.6865L389.709 92.6866C389.286 93.2905 387.474 92.7517 385.662 91.483C383.851 90.2143 382.725 88.6963 383.147 88.0923C383.152 88.0864 383.156 88.0805 383.16 88.0748L402.852 59.9527C403.355 60.8679 404.37 61.9392 405.699 62.8696ZM400.63 60.1657C400.928 60.3836 401.2 60.6094 401.439 60.8344L400.907 61.5947C400.911 61.407 400.699 61.1073 400.361 60.8171C400.416 60.5878 400.522 60.3497 400.63 60.1657ZM399.577 61.323C400.074 61.6709 400.573 61.8428 400.792 61.7578L400.261 62.5164C399.916 62.342 399.554 62.1259 399.193 61.8728C397.733 60.8509 396.836 59.6144 397.188 59.1111C397.49 58.6802 398.61 58.9265 399.842 59.6478C399.728 59.8428 399.644 60.0601 399.593 60.3138C399.206 60.1307 398.882 60.0871 398.783 60.2291C398.643 60.4284 398.999 60.9182 399.577 61.323ZM398.948 62.2183C399.304 62.4675 399.663 62.6848 400.015 62.8679L382.907 87.3013C382.56 87.128 382.197 86.9122 381.835 86.6588C380.377 85.6376 379.487 84.3917 379.848 83.8758L396.678 59.8406C397.071 60.5957 397.879 61.4696 398.948 62.2183ZM407.566 68.134C407.877 68.4266 408.231 68.7143 408.618 68.9857C409.687 69.7344 410.785 70.1952 411.629 70.3058L394.799 94.341C394.438 94.8569 392.963 94.4473 391.505 93.4261C391.11 93.1495 390.756 92.8564 390.458 92.5658L407.566 68.134ZM411.149 63.711C411.243 63.9022 411.349 64.2247 411.361 64.5525C411.372 64.8783 411.289 65.1753 411.048 65.3778C410.952 65.4578 410.858 65.5343 410.767 65.6086C410.496 65.8285 410.248 66.0298 410.058 66.2504C409.786 66.5657 409.533 67.1272 409.488 67.6658C409.634 67.8462 409.73 67.9049 409.923 67.9347C409.959 67.4945 410.22 66.8052 410.424 66.5688C410.585 66.3825 410.786 66.2192 411.043 66.01L411.043 66.01C411.141 65.931 411.246 65.8455 411.36 65.7497C411.754 65.4192 411.857 64.9526 411.843 64.5405C411.829 64.1304 411.699 63.7406 411.582 63.5014L411.149 63.711ZM401.538 57.6918C401.527 57.364 401.42 57.0416 401.327 56.8503L401.76 56.6408C401.877 56.88 402.007 57.2698 402.021 57.6799C402.035 58.092 401.931 58.5586 401.538 58.889C401.423 58.9848 401.318 59.0704 401.221 59.1494C400.964 59.3586 400.763 59.5219 400.602 59.7081C400.398 59.9446 400.137 60.6338 400.101 61.074C399.908 61.0442 399.812 60.9856 399.666 60.8051C399.71 60.2666 399.963 59.7051 400.236 59.3897C400.426 59.1691 400.674 58.9678 400.945 58.748C401.036 58.6736 401.13 58.5972 401.226 58.5171C401.467 58.3146 401.55 58.0177 401.538 57.6918ZM408.978 66.1305L407.816 67.7898C408.113 68.0758 408.463 68.3646 408.853 68.6381C410.313 69.6601 411.782 70.0805 412.134 69.5773C412.46 69.1114 411.716 68.0174 410.446 67.0468C410.339 67.2329 410.235 67.4702 410.184 67.6972C410.586 68.0421 410.807 68.3984 410.694 68.5587C410.558 68.7532 409.984 68.5858 409.411 68.1849C408.839 67.7841 408.485 67.3015 408.621 67.107C408.718 66.969 409.035 67.0133 409.416 67.1939C409.467 66.9333 409.552 66.711 409.668 66.5119C409.433 66.3677 409.202 66.2401 408.978 66.1305Z" fill="#FF4232"/>
<path d="M352.832 14.844C349.859 14.0474 353.736 6.25736 356.674 1.39591C357.062 0.754531 357.976 0.785612 358.228 1.49113C360.396 7.5457 356.609 15.8559 352.832 14.844Z" fill="#FF4232"/>
<path d="M380.517 121.52C379.87 118.134 377.538 133.651 369.44 139.081C363.371 143.15 388.725 145.551 380.517 121.52Z" fill="#FF4232"/>
<path d="M461.712 18.501C464.032 18.501 462.829 24.7509 461.635 28.9835C461.432 29.7048 460.545 29.9053 460.148 29.2694C457.573 25.1403 458.757 18.501 461.712 18.501Z" fill="#FF4232"/>
<path d="M408 10.5783C407.832 3.34718 436.153 21.391 423.957 22.3908C423.625 22.4181 423.271 22.2475 423.064 21.9866C416.023 13.1383 408.459 30.3358 408 10.5783Z" fill="#FF4232"/>
<path d="M319.999 21.4794C323.999 22.6958 325.894 27.8927 326.999 25.9794C328.38 23.5877 324.4 20.3 319.999 21.4794Z" fill="#FF4232"/>
<path d="M328.391 107.999C323.019 111.345 322.284 119.685 319.92 117.32C316.964 114.365 321.494 107.999 328.391 107.999Z" fill="#FF4232"/>
<path d="M446.206 129.055C451.704 123.176 449.861 112.687 453.545 114.814C458.149 117.473 454.679 126.785 446.206 129.055Z" fill="#FF4232"/>
<path d="M409.346 117C414.556 121.473 413.369 128.277 416.587 127.232C420.609 125.926 417.07 119.369 409.346 117Z" fill="#FF4232"/>
</svg>
